<svg width="111" height="16" viewBox="0 0 111 16" fill="none" xmlns="http://www.w3.org/2000/svg">
<path d="M109.246 0H111.001V15.6871H109.246V13.9093C108.891 14.5228 108.414 15.0178 107.816 15.3943C107.217 15.7708 106.514 15.959 105.706 15.959C104.947 15.959 104.237 15.8161 103.576 15.5303C102.914 15.2444 102.329 14.8505 101.821 14.3485C101.32 13.8395 100.927 13.2539 100.641 12.5915C100.356 11.9292 100.213 11.218 100.213 10.4581C100.213 9.69814 100.356 8.98699 100.641 8.32464C100.927 7.65532 101.32 7.06967 101.821 6.56768C102.329 6.05872 102.914 5.66131 103.576 5.37546C104.237 5.0896 104.947 4.94668 105.706 4.94668C106.514 4.94668 107.217 5.13492 107.816 5.51142C108.414 5.88791 108.891 6.38292 109.246 6.99646V0ZM105.727 14.2544C106.416 14.2544 107.011 14.0871 107.513 13.7524C108.021 13.4108 108.411 12.9506 108.682 12.3719C108.961 11.7932 109.1 11.1553 109.1 10.4581C109.1 9.74694 108.961 9.10551 108.682 8.5338C108.404 7.95512 108.01 7.49845 107.502 7.16379C107.001 6.82216 106.409 6.65135 105.727 6.65135C105.038 6.65135 104.411 6.82216 103.847 7.16379C103.29 7.50542 102.845 7.96558 102.51 8.54426C102.176 9.11597 102.009 9.75391 102.009 10.4581C102.009 11.1623 102.18 11.8037 102.521 12.3824C102.862 12.9541 103.315 13.4108 103.878 13.7524C104.442 14.0871 105.059 14.2544 105.727 14.2544Z" fill="#F1E6D8"/>
<path d="M94.1591 15.959C93.1983 15.959 92.3211 15.7115 91.5274 15.2165C90.7407 14.7214 90.1106 14.0591 89.6372 13.2294C89.1707 12.3928 88.9375 11.469 88.9375 10.458C88.9375 9.6911 89.0733 8.97647 89.3448 8.31412C89.6163 7.6448 89.9888 7.05915 90.4622 6.55716C90.9426 6.0482 91.4996 5.65079 92.1331 5.36494C92.7667 5.07908 93.442 4.93616 94.1591 4.93616C95.1199 4.93616 95.9936 5.18367 96.7803 5.67868C97.574 6.1737 98.2041 6.83953 98.6706 7.67618C99.144 8.51282 99.3807 9.44011 99.3807 10.458C99.3807 11.218 99.2449 11.9291 98.9734 12.5915C98.7019 13.2538 98.3259 13.8395 97.8455 14.3484C97.3721 14.8504 96.8186 15.2444 96.1851 15.5302C95.5585 15.8161 94.8832 15.959 94.1591 15.959ZM94.1591 14.202C94.8135 14.202 95.4018 14.0312 95.924 13.6896C96.4531 13.341 96.8674 12.8843 97.1667 12.3196C97.4731 11.7479 97.6262 11.1273 97.6262 10.458C97.6262 9.77477 97.4696 9.14728 97.1563 8.57557C96.85 8.00386 96.4357 7.54719 95.9136 7.20556C95.3914 6.86393 94.8066 6.69312 94.1591 6.69312C93.5047 6.69312 92.9164 6.86742 92.3942 7.21602C91.872 7.55765 91.4578 8.01432 91.1515 8.58603C90.8451 9.15774 90.692 9.78174 90.692 10.458C90.692 11.1552 90.8486 11.7897 91.1619 12.3614C91.4752 12.9261 91.8964 13.3758 92.4255 13.7105C92.9546 14.0382 93.5325 14.202 94.1591 14.202Z" fill="#F1E6D8"/>
<path d="M82.8837 15.959C81.9229 15.959 81.0457 15.7115 80.252 15.2165C79.4653 14.7214 78.8352 14.0591 78.3618 13.2294C77.8953 12.3928 77.6621 11.469 77.6621 10.458C77.6621 9.6911 77.7979 8.97647 78.0694 8.31412C78.3409 7.6448 78.7134 7.05915 79.1868 6.55716C79.6672 6.0482 80.2242 5.65079 80.8577 5.36494C81.4913 5.07908 82.1666 4.93616 82.8837 4.93616C83.8445 4.93616 84.7182 5.18367 85.505 5.67868C86.2986 6.1737 86.9287 6.83953 87.3952 7.67618C87.8686 8.51282 88.1053 9.44011 88.1053 10.458C88.1053 11.218 87.9695 11.9291 87.698 12.5915C87.4265 13.2538 87.0505 13.8395 86.5702 14.3484C86.0967 14.8504 85.5432 15.2444 84.9097 15.5302C84.2831 15.8161 83.6078 15.959 82.8837 15.959ZM82.8837 14.202C83.5381 14.202 84.1265 14.0312 84.6486 13.6896C85.1777 13.341 85.592 12.8843 85.8914 12.3196C86.1977 11.7479 86.3508 11.1273 86.3508 10.458C86.3508 9.77477 86.1942 9.14728 85.8809 8.57557C85.5746 8.00386 85.1603 7.54719 84.6382 7.20556C84.116 6.86393 83.5312 6.69312 82.8837 6.69312C82.2293 6.69312 81.641 6.86742 81.1188 7.21602C80.5967 7.55765 80.1824 8.01432 79.8761 8.58603C79.5697 9.15774 79.4166 9.78174 79.4166 10.458C79.4166 11.1552 79.5732 11.7897 79.8865 12.3614C80.1998 12.9261 80.621 13.3758 81.1501 13.7105C81.6793 14.0382 82.2571 14.202 82.8837 14.202Z" fill="#F1E6D8"/>
<path d="M66.5433 15.6871H64.768L61.2695 5.229H62.9822L65.6766 13.2085L68.3396 5.229H70.1463L72.8197 13.2085L75.4827 5.229H77.2163L73.7178 15.6871H71.932L69.2272 7.63436L66.5433 15.6871Z" fill="#F1E6D8"/>
<path d="M55.6239 15.959C54.6632 15.959 53.7859 15.7115 52.9923 15.2165C52.2055 14.7214 51.5755 14.0591 51.102 13.2294C50.6356 12.3928 50.4023 11.469 50.4023 10.458C50.4023 9.6911 50.5381 8.97647 50.8096 8.31412C51.0812 7.6448 51.4536 7.05915 51.9271 6.55716C52.4074 6.0482 52.9644 5.65079 53.598 5.36494C54.2315 5.07908 54.9068 4.93616 55.6239 4.93616C56.4107 4.93616 57.1312 5.09651 57.7857 5.41723C58.4471 5.73097 59.011 6.17021 59.4775 6.73495C59.9509 7.29969 60.3025 7.95506 60.5322 8.70107C60.769 9.44708 60.856 10.2454 60.7933 11.096H52.2717C52.3552 11.6886 52.5502 12.2185 52.8565 12.6856C53.1628 13.1458 53.5527 13.5118 54.0261 13.7837C54.5065 14.0556 55.0391 14.1951 55.6239 14.202C56.2505 14.202 56.8179 14.0417 57.3262 13.721C57.8344 13.3933 58.2452 12.9471 58.5585 12.3823L60.3443 12.8006C59.9265 13.7279 59.2965 14.4879 58.4541 15.0805C57.6116 15.6662 56.6683 15.959 55.6239 15.959ZM52.2195 9.7155H59.0284C58.9727 9.12985 58.7848 8.59649 58.4645 8.11542C58.1442 7.62737 57.737 7.23694 57.2426 6.94411C56.7483 6.65128 56.2088 6.50487 55.6239 6.50487C55.0391 6.50487 54.503 6.6478 54.0157 6.93365C53.5283 7.21951 53.1245 7.60646 52.8043 8.0945C52.491 8.57557 52.296 9.11591 52.2195 9.7155Z" fill="#F1E6D8"/>
<path d="M47.0762 15.6871V0H48.8306V15.6871H47.0762Z" fill="#F1E6D8"/>
<path d="M43.0256 0H44.78V15.6871H43.0256V13.9093C42.6705 14.5228 42.1936 15.0178 41.5948 15.3943C40.9961 15.7708 40.2929 15.959 39.4853 15.959C38.7264 15.959 38.0163 15.8161 37.3549 15.5303C36.6935 15.2444 36.1087 14.8505 35.6004 14.3485C35.0992 13.8395 34.7058 13.2539 34.4204 12.5915C34.1349 11.9292 33.9922 11.218 33.9922 10.4581C33.9922 9.69814 34.1349 8.98699 34.4204 8.32464C34.7058 7.65532 35.0992 7.06967 35.6004 6.56768C36.1087 6.05872 36.6935 5.66131 37.3549 5.37546C38.0163 5.0896 38.7264 4.94668 39.4853 4.94668C40.2929 4.94668 40.9961 5.13492 41.5948 5.51142C42.1936 5.88791 42.6705 6.38292 43.0256 6.99646V0ZM39.5062 14.2544C40.1954 14.2544 40.7907 14.0871 41.292 13.7524C41.8002 13.4108 42.1901 12.9506 42.4616 12.3719C42.7401 11.7932 42.8793 11.1553 42.8793 10.4581C42.8793 9.74694 42.7401 9.10551 42.4616 8.5338C42.1831 7.95512 41.7898 7.49845 41.2815 7.16379C40.7803 6.82216 40.1885 6.65135 39.5062 6.65135C38.8169 6.65135 38.1904 6.82216 37.6264 7.16379C37.0694 7.50542 36.6239 7.96558 36.2897 8.54426C35.9555 9.11597 35.7884 9.75391 35.7884 10.4581C35.7884 11.1623 35.959 11.8037 36.3001 12.3824C36.6413 12.9541 37.0938 13.4108 37.6577 13.7524C38.2217 14.0871 38.8378 14.2544 39.5062 14.2544Z" fill="#F1E6D8"/>
<path d="M30.6701 0H32.4245V15.6871H30.6701V13.9093C30.315 14.5228 29.8381 15.0178 29.2394 15.3943C28.6406 15.7708 27.9374 15.959 27.1298 15.959C26.371 15.959 25.6608 15.8161 24.9994 15.5303C24.338 15.2444 23.7532 14.8505 23.245 14.3485C22.7437 13.8395 22.3503 13.2539 22.0649 12.5915C21.7794 11.9292 21.6367 11.218 21.6367 10.4581C21.6367 9.69814 21.7794 8.98699 22.0649 8.32464C22.3503 7.65532 22.7437 7.06967 23.245 6.56768C23.7532 6.05872 24.338 5.66131 24.9994 5.37546C25.6608 5.0896 26.371 4.94668 27.1298 4.94668C27.9374 4.94668 28.6406 5.13492 29.2394 5.51142C29.8381 5.88791 30.315 6.38292 30.6701 6.99646V0ZM27.1507 14.2544C27.84 14.2544 28.4352 14.0871 28.9365 13.7524C29.4447 13.4108 29.8346 12.9506 30.1062 12.3719C30.3846 11.7932 30.5239 11.1553 30.5239 10.4581C30.5239 9.74694 30.3846 9.10551 30.1062 8.5338C29.8277 7.95512 29.4343 7.49845 28.9261 7.16379C28.4248 6.82216 27.833 6.65135 27.1507 6.65135C26.4615 6.65135 25.8349 6.82216 25.271 7.16379C24.714 7.50542 24.2684 7.96558 23.9342 8.54426C23.6 9.11597 23.4329 9.75391 23.4329 10.4581C23.4329 11.1623 23.6035 11.8037 23.9447 12.3824C24.2858 12.9541 24.7383 13.4108 25.3023 13.7524C25.8662 14.0871 26.4824 14.2544 27.1507 14.2544Z" fill="#F1E6D8"/>
<path d="M0 15.6871V5.22898H1.75446V6.53624C2.12345 6.0482 2.58643 5.66125 3.1434 5.3754C3.70733 5.08257 4.32 4.93616 4.9814 4.93616C5.7542 4.93616 6.46086 5.1244 7.10137 5.50089C7.74189 5.87739 8.24664 6.37589 8.61564 6.9964C8.98463 6.37589 9.4859 5.87739 10.1195 5.50089C10.76 5.1244 11.4631 4.93616 12.229 4.93616C13.0157 4.93616 13.7293 5.12789 14.3698 5.51135C15.0104 5.88784 15.5186 6.3968 15.8945 7.03823C16.2775 7.67966 16.4689 8.3943 16.4689 9.18214V15.6871H14.7145V9.60047C14.7145 9.08453 14.5891 8.60695 14.3385 8.16771C14.0879 7.72847 13.7502 7.37638 13.3255 7.11144C12.9008 6.8465 12.4309 6.71403 11.9157 6.71403C11.4005 6.71403 10.9305 6.83953 10.5059 7.09052C10.0812 7.33455 9.7435 7.67618 9.49287 8.11542C9.24223 8.54768 9.11691 9.0427 9.11691 9.60047V15.6871H7.36245V9.60047C7.36245 9.0427 7.23713 8.54768 6.9865 8.11542C6.73586 7.67618 6.39472 7.33455 5.96307 7.09052C5.53838 6.83953 5.06843 6.71403 4.55323 6.71403C4.045 6.71403 3.57505 6.8465 3.1434 7.11144C2.71871 7.37638 2.38105 7.72847 2.13041 8.16771C1.87978 8.60695 1.75446 9.08453 1.75446 9.60047V15.6871H0Z" fill="#F1E6D8"/>
<path d="M18.3516 5.229H20.106V15.6871H18.3516V5.229Z" fill="#F1E6D8"/>
<rect x="18.2969" y="1.65771" width="1.88402" height="1.88678" fill="#F1E6D8"/>
</svg>
